<svg xmlns="http://www.w3.org/2000/svg" width="36" height="36" fill="none"><path fill="#D4EEFF" d="M36 2.25H0v31.5h36V2.25Z"/><path fill="#56B4FC" d="M28.125 36H7.875a1.128 1.128 0 0 1-1.125-1.125V1.125C6.75.506 7.256 0 7.875 0h20.25c.618 0 1.125.506 1.125 1.125v33.75c0 .619-.507 1.125-1.125 1.125Z"/><path fill="#1652F0" d="M29.25 2.25H6.75v31.5h22.5V2.25Z"/><path fill="#fff" d="M23 15.137 21.889 14l-6.667 6.822 1.11 1.137L23 15.137Z"/><path fill="#fff" d="m16.334 22 1.11-1.137-3.333-3.411-1.11 1.137L16.333 22Z"/><path fill="#56B4FC" d="M23.625 3.375h-11.25a1.128 1.128 0 0 1-1.124-1.125V1.125h13.5V2.25c0 .619-.507 1.125-1.126 1.125Z"/><path fill="#fff" d="M15.75 32.063c0 .337.226.562.563.562h3.375c.338 0 .563-.225.563-.562 0-.338-.226-.563-.563-.563h-3.375c-.337 0-.562.225-.562.563Z"/></svg>