<svg xmlns="http://www.w3.org/2000/svg" width="36" height="38"><g fill="none" fill-rule="evenodd"><path fill="#D4EEFF" d="M17.813 9.5a2.375 2.375 0 0 0 2.375-2.375v-4.75a2.375 2.375 0 0 0-4.75 0v4.75A2.375 2.375 0 0 0 17.811 9.5M29.688 9.5a2.375 2.375 0 0 0 2.375-2.375v-4.75a2.375 2.375 0 0 0-4.75 0v4.75A2.375 2.375 0 0 0 29.688 9.5"/><path fill="#D4EEFF" d="M0 38h35.625V4.75H0z"/><path fill="#55B4FC" d="M0 11.875h35.625V4.75H0z"/><path fill="#D4EEFF" d="M5.938 9.5a2.375 2.375 0 0 0 2.375-2.375v-4.75a2.375 2.375 0 0 0-4.75 0v4.75A2.375 2.375 0 0 0 5.937 9.5"/><path fill="#1752F0" d="M27.313 4.75v2.375a2.375 2.375 0 0 0 4.75 0V4.75h-4.75ZM5.938 9.5a2.375 2.375 0 0 0 2.375-2.375V4.75h-4.75v2.375A2.375 2.375 0 0 0 5.937 9.5"/><path fill="#D4EEFF" d="M17.813 9.5a2.375 2.375 0 0 0 2.375-2.375v-4.75a2.375 2.375 0 0 0-4.75 0v4.75A2.375 2.375 0 0 0 17.811 9.5"/><path fill="#1752F0" d="M17.813 9.5a2.375 2.375 0 0 0 2.375-2.375V4.75h-4.75v2.375A2.375 2.375 0 0 0 17.811 9.5"/><path fill="#FFF" d="M4.75 34.438h26.125V11.875H4.75z"/><path fill="#1752F0" d="m12.69 26.329 3.359 3.359 10.076-10.077-3.358-3.359z"/><path fill="#1752F0" d="m16.049 29.688 3.359-3.359-6.244-6.244-3.359 3.359z"/></g></svg>