<svg xmlns="http://www.w3.org/2000/svg" preserveAspectRatio="none" viewBox="0 0 100 32"><path fillColor="current" d="M0 11.867v.38c0 .065-.2.04 0-.051.2-.092.8-.221 1-.406.2-.186 0-.483 0-.52 0-.038-.2.215 0 .33.2.116.8.124 1 .247.2.122 0 .373 0 .367 0-.006-.2-.426 0-.397.2.03.8.49 1 .544.2.055 0-.14 0-.27 0-.129-.2-.194 0-.376.2-.183.8-.445 1-.535.2-.09 0 .033 0 .082 0 .05-.2.023 0 .163s.8.43 1 .537c.2.106 0 .07 0-.004 0-.073-.2-.382 0-.36.2.02.8.47 1 .466.2-.003 0-.18 0-.485 0-.304-.2-.821 0-1.037.2-.215.8-.07 1-.041.2.028 0 .012 0 .181 0 .169-.2.504 0 .662.2.159.8.253 1 .13.2-.123-.2-.583 0-.746.2-.163.8.12 1-.067.2-.187 0-.686 0-.866 0-.179-.2-.13 0-.03.2.099.8.37 1 .527.2.157 0 .226 0 .26s-.2-.05 0-.092c.2-.042.8-.246 1-.118.2.127 0 .543 0 .757 0 .213-.2.341 0 .31.2-.032.8-.373 1-.47.2-.095 0-.025 0-.01 0 .014-.2.075 0 .085.2.01.8-.087 1-.034.2.053 0 .071 0 .299 0 .227-.2.748 0 .837.2.09.8-.173 1-.39.2-.218 0-.522 0-.699 0-.176-.2-.117 0-.184.2-.066.8-.198 1-.148.2.049 0 .397 0 .394 0-.003-.2-.231 0-.41.2-.177.8-.367 1-.48.2-.112-.2-.118 0-.081.2.037.8.232 1 .265.2.032 0-.25 0-.103 0 .149-.2.648 0 .843.2.195.8.119 1 .133.2.014 0-.015 0-.06 0-.046-.2-.025 0-.167.2-.142.8-.429 1-.544.2-.115 0-.18 0-.032s-.2.517 0 .775c.2.257.8.466 1 .51.2.046 0-.205 0-.285 0-.08-.2.033 0-.114.2-.148.8-.554 1-.624.2-.07 0 .171 0 .272 0 .1-.2.199 0 .23.2.033.8-.07 1-.07.2 0 0-.005 0 .073s-.2.308 0 .318c.2.01.8-.208 1-.27.2-.06 0-.089 0-.037 0 .051-.2.265 0 .295.2.03.8-.15 1-.145.2.005-.2.15 0 .17.2.022.8-.022 1-.065.2-.043 0-.203 0-.149 0 .054-.2.349 0 .42.2.073.8-.102 1-.06.2.044 0 .22 0 .276 0 .056-.2-.03 0 .006.2.035.8.094 1 .17.2.075 0 .18 0 .207 0 .027-.2.023 0-.072s.8-.214 1-.403c.2-.19 0-.473 0-.543 0-.07-.2.15 0 .19.2.04.8.018 1 .009.2-.009 0-.318 0-.052 0 .265-.2 1.154 0 1.38.2.227.8-.04 1-.25.2-.209 0-.694 0-.797 0-.103-.2.21 0 .28.2.072.8.005 1 .074.2.068 0 .265 0 .271 0 .006-.2-.149 0-.242s.8-.14 1-.224c.2-.084 0-.1 0-.197s-.2-.182 0-.29c.2-.108.8-.228 1-.25.2-.023-.2-.087 0 .138.2.226.8.735 1 .99.2.253 0 .281 0 .281s-.2-.191 0-.28c.2-.09.8-.083 1-.167.2-.085 0-.18 0-.256 0-.077-.2-.069 0-.128.2-.06.8-.09 1-.17.2-.081 0-.153 0-.235 0-.08-.2-.127 0-.172.2-.045.8-.09 1-.053.2.037 0 .127 0 .237 0 .11-.2.236 0 .316.2.08.8-.018 1 .085.2.102 0 .32 0 .427 0 .106-.2.141 0 .102.2-.04.8-.138 1-.3.2-.16 0-.444 0-.507s-.2.123 0 .192c.2.068.8.076 1 .15.2.074 0 .095 0 .22 0 .127-.2.127 0 .41.2.285.8 1.03 1 1.012.2-.018-.2-.818 0-1.1.2-.283.8-.346 1-.313.2.032 0 .347 0 .475s-.2.105 0 .165c.2.06.8.07 1 .132.2.062 0 .068 0 .176 0 .109-.2.352 0 .365.2.014.8-.185 1-.298.2-.114 0-.267 0-.27 0-.003-.2.291 0 .253.2-.039.8-.295 1-.446.2-.152 0-.24 0-.312 0-.073-.2-.02 0-.05.2-.03.8-.133 1-.099.2.035 0 .113 0 .27 0 .157-.2.473 0 .513.2.04.8-.187 1-.311.2-.124 0-.228 0-.31 0-.083-.2-.118 0-.102s.8.146 1 .182c.2.036 0-.018 0-.002 0 .015-.2-.01 0 .08s.8.413 1 .37c.2-.044-.2-.43 0-.587.2-.156.8-.19 1-.197.2-.007 0 .152 0 .165 0 .013-.2-.125 0-.098.2.027.8.12 1 .232.2.113 0 .287 0 .33 0 .044-.2-.025 0-.111s.8-.225 1-.32c.2-.094 0-.146 0-.153 0-.007-.2.213 0 .12s.8-.448 1-.586c.2-.138 0-.049 0-.104 0-.055-.2-.184 0-.17.2.014.8.198 1 .239.2.041 0 .06 0-.033s-.2-.342 0-.432c.2-.091.8-.06 1-.022.2.04 0 .158 0 .216 0 .058-.2.114 0 .075.2-.039.8-.136 1-.27.2-.132 0-.35 0-.395 0-.044-.2.135 0 .175.2.04.8-.05 1 .024.2.074 0 .362 0 .348 0-.015-.2-.299 0-.419s.8-.11 1-.181c.2-.071-.2-.212 0-.173.2.04.8.277 1 .368.2.091 0 .033 0 .088 0 .054-.2.206 0 .186.2-.02.8-.223 1-.284.2-.06 0-.028 0-.02 0 .006-.2.068 0 .055.2-.013.8-.082 1-.12.2-.04 0-.073 0-.076 0-.003-.2.02 0 .06.2.04.8.2 1 .137.2-.063 0 .943 0-.45 0-1.394-.2-5.633 0-6.517.2-.884.8 1.77 1 2.096.2.326 0-.464 0-.464s-.2.276 0 .462c.2.187.8.323 1 .47.2.145 0 .233 0 .26 0 .026-.2-1.133 0-.128.2 1.004.8 4.11 1 5.15.2 1.04 0 .228 0 .05 0-.177-.2-.63 0-.936.2-.305.8-.599 1-.59.2.008-.2.564 0 .631.2.067.8-.357 1-.296.2.06 0 .479 0 .602s-.2-.224 0 .012c.2.236.8.707 1 1.167.2.46 0 .683 0 1.133 0 .451-.2.739 0 1.12.2.382.8.77 1 .79.2.019 0-.55 0-.69 0-.14-.2.046 0-.01s.8-.012 1-.272c.2-.259 0-.97 0-1.025 0-.055-.2.261 0 .752s.8 1.56 1 1.703c.2.142 0-.702 0-.993 0-.29-.2-.23 0-.46.2-.228.8-.706 1-.686.2.02 0 .785 0 .788 0 .002-.2-.651 0-.776.2-.124.8.346 1 .153.2-.192 0-.96 0-1.114 0-.155-.2.09 0 .34.2.248.8.536 1 .903.2.366-.2.693 0 .93.2.237.8.485 1 .255.2-.23 0-1.144 0-1.407 0-.263-.2.191 0 .092s.8-.358 1-.588c.2-.23 0-.525 0-.561 0-.037-.2.329 0 .376.2.048.8-.123 1-.138.2-.016 0 .128 0 .059s-.2-.572 0-.403c.2.17.8 1.133 1 1.247.2.115 0-.52 0-.674 0-.154-.2-.151 0-.095.2.056.8.104 1 .377.2.273 0 1.01 0 .988 0-.022-.2-.795 0-1.099.2-.303.8-.546 1-.419.2.128 0 .697 0 1.057s-.2.65 0 .741c.2.09.8-.27 1-.288.2-.016 0 .124 0 .205 0 .08-.2-.018 0 .197.2.214.8.612 1 .876.2.264 0 .566 0 .442 0-.125-.2-.778 0-1.063.2-.286.8-.493 1-.365.2.127-.2.033 0 1.002.2.968.8 3.109 1 3.84.2.73 0-.782 0-.186 0 .595-.2 2.642 0 3.165.2.522.8-.745 1-.554.2.191 0 1.232 0 1.509 0 .277-.2.666 0-.125s.8-3.31 1-3.83c.2-.52 0 .803 0 1.228 0 .424-.2.862 0 .896.2.035.8-.626 1-.724.2-.098 0-.235 0 .234s-.2 1.823 0 2.111c.2.288.8-.875 1-.672.2.204 0 1.498 0 1.688 0 .191-.2-.518 0-.734.2-.216.8-.21 1-.347.2-.136 0-.216 0-.334 0-.118-.2.015 0-.255s.8-.846 1-1.093c.2-.246 0-.274 0-.141 0 .132-.2.59 0 .805.2.214.8.088 1 .27.2.18-.2.469 0 .634.2.165.8.278 1 .191.2-.087 0-.615 0-.627 0-.013-.2.258 0 .564.2.307.8.911 1 .97.2.057 0-.572 0-.682 0-.11-.2.26 0 .132.2-.129.8-.566 1-.772.2-.207 0-.266 0-.26 0 .005-.2.342 0 .286.2-.055.8-.518 1-.564.2-.046 0-.763 0 .336 0 1.098-.2 4.541 0 5.155.2.614.8-1.88 1-2.086.2-.205 0 1.097 0 1.061 0-.036-.2-1.07 0-1.24.2-.17.8.214 1 .39.2.175 0 .55 0 .489 0-.06-.2-.624 0-.79.2-.166.8.183 1-.04.2-.224 0-.99 0-1.078 0-.089-.2.557 0 .634.2.076.8-.229 1-.252.2-.024 0 .108 0 .135" class="SparkLine__Path-sc-9wg5ja-1 jTdHd"/></svg>